<?xml version="1.0" encoding="utf-8"?>
<!-- Generator: Adobe Illustrator 20.1.0, SVG Export Plug-In . SVG Version: 6.00 Build 0)  -->
<svg version="1.1" id="Layer_1" xmlns="http://www.w3.org/2000/svg" xmlns:xlink="http://www.w3.org/1999/xlink" x="0px" y="0px"
     viewBox="0 0 24 24" style="enable-background:new 0 0 24 24;" xml:space="preserve">
<style type="text/css">
    .st0{fill:#FFFFFF;}
</style>
<title>EAAE9272-B947-423C-BFA8-1D24E6FA71BC</title>
<desc>Created with sketchtool.</desc>
<g>
    <g>
        <path class="st0" d="M18.2,12.3c-3.3,0-5.8,2.6-5.8,5.8c0,3.3,2.6,5.8,5.8,5.8c3.3,0,5.8-2.6,5.8-5.8C24,14.9,21.4,12.3,18.2,12.3
            z M20.3,20.6c-2.4,1.2-5.4,0.2-6.6-2.3c-0.1-0.1-0.1-0.2,0-0.3c0.5-1,1.3-1.8,2.3-2.3c2.4-1.2,5.4-0.2,6.6,2.3
            c0.1,0.1,0.1,0.2,0,0.3C22.1,19.3,21.3,20.1,20.3,20.6z"/>
        <path class="st0" d="M18.2,16.3c-1,0-1.9,0.8-1.9,1.9c0,1,0.8,1.9,1.9,1.9c1,0,1.9-0.8,1.9-1.9C20.1,17.1,19.2,16.3,18.2,16.3z
             M18.2,19.4c-0.7,0-1.2-0.5-1.2-1.2c0-0.7,0.5-1.2,1.2-1.2c0.7,0,1.2,0.5,1.2,1.2C19.4,18.8,18.8,19.4,18.2,19.4z"/>
    </g>
    <g>
        <path class="st0" d="M18.5,0H1.4C0.6,0,0,0.6,0,1.4v17.1c0,0.8,0.6,1.4,1.4,1.4h10.5c-0.1-0.5-0.2-1.1-0.2-1.7
            c0-1.1,0.3-2.2,0.8-3.1h-9V13h10.8c1.1-0.9,2.5-1.4,4-1.4c0.6,0,1.2,0.1,1.7,0.2V1.4C19.9,0.6,19.3,0,18.5,0z M3.4,4.8h2.7v2.1
            H3.4V4.8z M16.5,11h-13V8.9h13V11z M16.5,6.9H7.5V4.8h8.9V6.9z"/>
        <polygon class="st0" points="12.4,15.1 12.4,15.1 12.4,15.1      "/>
    </g>
</g>
</svg>
